<svg width="32" height="32" viewBox="0 0 32 32" fill="none" xmlns="http://www.w3.org/2000/svg">
<rect width="32" height="32" rx="16" fill="#BE9369"/>
<path d="M10.7876 9.97794C10.0562 8.92494 10.6994 7.64085 11.8096 7L16.1479 14.4163L20.4861 7C21.5963 7.64085 22.2395 8.92494 21.5082 9.97794L17.1127 16.0649L18.9662 19.2346C19.6229 18.9001 20.3804 18.821 21.0921 19.0126C21.8038 19.2043 22.4191 19.653 22.8191 20.2721C23.2191 20.8912 23.3752 21.6366 23.2574 22.3641C23.1396 23.0917 22.7562 23.7497 22.1813 24.2109C21.6064 24.6722 20.8809 24.9038 20.1451 24.8611C19.4093 24.8183 18.7155 24.5042 18.1979 23.9796C17.6802 23.4549 17.3756 22.7569 17.3428 22.0206C17.31 21.2843 17.5514 20.562 18.0204 19.9934L16.1479 17.399L14.2753 19.9922C14.7443 20.5608 14.9857 21.2831 14.9529 22.0194C14.9202 22.7557 14.6155 23.4537 14.0979 23.9784C13.5802 24.503 12.8864 24.8171 12.1506 24.8599C11.4148 24.9026 10.6893 24.671 10.1144 24.2097C9.53954 23.7485 9.15611 23.0905 9.0383 22.3629C8.92049 21.6354 9.07667 20.89 9.47664 20.2709C9.87661 19.6518 10.4919 19.2031 11.2036 19.0114C11.9153 18.8198 12.6728 18.8989 13.3295 19.2334L15.183 16.0649L10.7876 9.97794ZM13.7655 21.8897C13.7655 21.4158 13.5773 20.9614 13.2422 20.6263C12.9071 20.2912 12.4526 20.1029 11.9787 20.1029C11.5049 20.1029 11.0504 20.2912 10.7153 20.6263C10.3802 20.9614 10.192 21.4158 10.192 21.8897C10.192 22.3636 10.3802 22.8181 10.7153 23.1531C11.0504 23.4882 11.5049 23.6765 11.9787 23.6765C12.4526 23.6765 12.9071 23.4882 13.2422 23.1531C13.5773 22.8181 13.7655 22.3636 13.7655 21.8897ZM22.1037 21.8897C22.1037 21.4158 21.9155 20.9614 21.5804 20.6263C21.2453 20.2912 20.7909 20.1029 20.317 20.1029C19.8431 20.1029 19.3886 20.2912 19.0535 20.6263C18.7185 20.9614 18.5302 21.4158 18.5302 21.8897C18.5302 22.3636 18.7185 22.8181 19.0535 23.1531C19.3886 23.4882 19.8431 23.6765 20.317 23.6765C20.7909 23.6765 21.2453 23.4882 21.5804 23.1531C21.9155 22.8181 22.1037 22.3636 22.1037 21.8897Z" fill="white"/>
</svg>
